<svg width="154" height="189" viewBox="0 0 154 189" fill="none" xmlns="http://www.w3.org/2000/svg">
<path fill-rule="evenodd" clip-rule="evenodd" d="M106.783 118.234H135.113V123.218H106.783V118.234ZM109.689 24.7683C109.689 83.963 44.3113 83.963 44.3113 24.7683C44.3113 -8.25611 109.689 -8.25611 109.689 24.7683ZM73.3679 73.3703H80.6321C85.717 73.3703 85.717 85.2092 81.3585 85.2092L83.5377 120.726L109.689 77.1089C135.113 80.8475 154 88.9479 154 102.033V188.644C121.311 188.644 32.6887 188.644 0 188.644V102.033C0 88.9479 19.6132 80.8475 44.3113 77.1089L70.4623 120.726L73.3679 85.2092C69.0094 85.2092 69.0094 73.3703 73.3679 73.3703Z" fill="#5F96BD"/>
</svg>
