<svg width="211" height="123" viewBox="0 0 211 123" fill="none" xmlns="http://www.w3.org/2000/svg">
<path fill-rule="evenodd" clip-rule="evenodd" d="M154.697 43.0307H152.136C142.452 43.0307 134.593 50.3596 134.593 59.408V96.8227H105.622V83.2706C110.464 82.5746 114.981 80.462 118.49 77.1865C122.832 73.1249 125.27 67.6221 125.27 61.89C125.27 60.0803 123.7 58.6146 121.762 58.6146C119.832 58.6146 118.253 60.0803 118.253 61.89C118.253 65.886 116.56 69.7185 113.525 72.5516C110.499 75.3768 106.394 76.9654 102.114 76.9654C97.8246 76.9654 93.7197 75.3768 90.685 72.5516C87.6588 69.7182 85.9572 65.886 85.9572 61.89C85.9572 60.0803 84.3871 58.6146 82.4487 58.6146C80.5102 58.6146 78.9401 60.0803 78.9401 61.89C78.9401 67.6221 81.3785 73.1249 85.729 77.1865C89.2376 80.462 93.7548 82.5746 98.6054 83.2706V96.8227H60.8279L48.8198 46.3816H60.9682C63.7663 46.3816 66.4327 45.3499 68.4063 43.5074C70.3886 41.665 71.4938 39.1593 71.4938 36.5553V36.4979L79.7213 41.9762C80.7914 42.6886 82.1949 42.7787 83.3702 42.2218C84.5368 41.6568 85.2736 40.535 85.2736 39.3067V8.91044C85.2736 7.68213 84.5368 6.56028 83.3702 6.00351C82.1948 5.43849 80.7915 5.52857 79.7213 6.24098L71.4938 11.7192V11.6619C71.4938 9.05788 70.3886 6.56036 68.4063 4.71792C66.4327 2.86729 63.7663 1.83551 60.9682 1.83551H18.0239C15.2346 1.83551 12.5506 2.86729 10.577 4.71792C8.61228 6.56038 7.49831 9.05788 7.49831 11.6619V36.5554C7.49831 39.1594 8.61225 41.6651 10.577 43.5076C12.5506 45.35 15.2346 46.3818 18.0239 46.3818H26.5056L14.5064 96.8229H3.75266C1.81421 96.8229 0.244141 98.2887 0.244141 100.098V119.096C0.244141 120.906 1.81421 122.372 3.75266 122.372H207.247C209.185 122.372 210.756 120.906 210.756 119.096V59.4082C210.756 50.3597 202.905 43.0309 193.213 43.0309H190.652C195.932 38.5025 199.23 32.0008 199.23 24.7866C199.23 11.1116 187.336 0 172.671 0C158.014 0 146.121 11.112 146.121 24.7866C146.121 32.0008 149.426 38.5025 154.697 43.0307ZM203.738 103.373H7.26051V115.819H203.738V103.373ZM33.6963 46.3785L21.697 96.8196H53.6431L41.6351 46.3785H33.6963ZM203.738 96.8196V59.4049C203.738 53.9759 199.019 49.5785 193.212 49.5785H152.136C146.321 49.5785 141.611 53.9759 141.611 59.4049V96.8196H148.812V68.4378C148.812 66.6281 150.391 65.1624 152.32 65.1624C154.259 65.1624 155.829 66.6281 155.829 68.4378V96.8196H189.511V68.4378C189.511 66.6281 191.089 65.1624 193.019 65.1624C194.958 65.1624 196.528 66.6281 196.528 68.4378V96.8196H203.738ZM172.67 6.54887C183.458 6.54887 192.212 14.7211 192.212 24.785C192.212 34.857 183.458 43.0292 172.67 43.0292C161.89 43.0292 153.136 34.857 153.136 24.785C153.136 14.7211 161.89 6.54887 172.67 6.54887ZM18.023 39.8276H60.9673C61.897 39.8276 62.7917 39.4837 63.4496 38.8695C64.1075 38.2553 64.4759 37.4201 64.4759 36.552V11.6585C64.4759 10.7905 64.1075 9.95528 63.4496 9.34924C62.7918 8.7269 61.8971 8.38298 60.9673 8.38298H18.023C17.0932 8.38298 16.1985 8.7269 15.5406 9.34924C14.8828 9.9552 14.5144 10.7904 14.5144 11.6585V36.552C14.5144 37.42 14.8828 38.2553 15.5406 38.8695C16.1985 39.4837 17.0932 39.8276 18.023 39.8276ZM71.4917 19.7654V28.4453L78.2544 32.949V15.2697L71.4917 19.7654Z" fill="#5F96BD"/>
</svg>
