<svg width="41" height="35" viewBox="0 0 41 35" fill="none" xmlns="http://www.w3.org/2000/svg">
<path d="M41 35L30.2375 27.3913L31.529 30.4348H5.125C3.76577 30.4348 2.4622 30.034 1.50108 29.3205C0.539954 28.6071 0 27.6394 0 26.6304V3.80435C0 2.79537 0.539954 1.82772 1.50108 1.11427C2.4622 0.400814 3.76577 0 5.125 0H35.875C37.2342 0 38.5378 0.400814 39.4989 1.11427C40.46 1.82772 41 2.79537 41 3.80435V35ZM20.5 8.82609C15.006 8.82609 11.152 10.5761 11.152 10.5761C13.2635 9.17609 16.9535 8.36957 16.9535 8.36957L16.605 8.11087C13.1405 8.15652 10.004 9.93696 10.004 9.93696C6.478 15.4 6.7035 20.1174 6.7035 20.1174C9.5735 22.8717 13.8375 22.6739 13.8375 22.6739L15.293 21.3043C12.7305 20.8935 11.111 19.2043 11.111 19.2043C11.111 19.2043 14.965 21.1522 20.5 21.1522C26.035 21.1522 29.889 19.2043 29.889 19.2043C29.889 19.2043 28.2695 20.8935 25.707 21.3043L27.1625 22.6739C27.1625 22.6739 31.4265 22.8717 34.2965 20.1174C34.2965 20.1174 34.522 15.4 30.996 9.93696C30.996 9.93696 27.8595 8.15652 24.395 8.11087L24.0465 8.36957C24.0465 8.36957 27.7365 9.17609 29.848 10.5761C29.848 10.5761 25.994 8.82609 20.5 8.82609ZM16.2565 14.5935C17.589 14.5935 18.6755 15.4609 18.655 16.5261C18.655 17.5761 17.589 18.4587 16.2565 18.4587C14.9445 18.4587 13.8785 17.5761 13.8785 16.5261C13.8785 15.4609 14.924 14.5935 16.2565 14.5935ZM24.805 14.5935C26.1375 14.5935 27.2035 15.4609 27.2035 16.5261C27.2035 17.5761 26.1375 18.4587 24.805 18.4587C23.493 18.4587 22.427 17.5761 22.427 16.5261C22.427 15.4609 23.4725 14.5935 24.805 14.5935Z" fill="white"/>
</svg>
