<svg width="101" height="76" viewBox="0 0 101 76" fill="none" xmlns="http://www.w3.org/2000/svg">
<path d="M100.121 36.2585C91.9291 18.4626 73.4166 0.500122 50.5 0.500122C27.5833 0.500122 9.07078 18.4626 0.879119 36.2585C0.629927 36.8053 0.500977 37.3992 0.500977 38.0001C0.500977 38.601 0.629927 39.195 0.879119 39.7418C9.07078 57.5376 27.5833 75.5001 50.5 75.5001C73.4166 75.5001 91.9291 57.5376 100.121 39.7418C100.37 39.195 100.499 38.601 100.499 38.0001C100.499 37.3992 100.37 36.8053 100.121 36.2585ZM50.5 67.1668C32.1208 67.1668 16.5583 52.3668 9.29162 38.0001C16.5583 23.6335 32.1208 8.83346 50.5 8.83346C68.8791 8.83346 84.4416 23.6335 91.7083 38.0001C84.4416 52.3668 68.8791 67.1668 50.5 67.1668Z" fill="#808080"/>
<path d="M50.5003 17.1668C46.3799 17.1668 42.352 18.3886 38.926 20.6778C35.4999 22.967 32.8297 26.2207 31.2528 30.0275C29.676 33.8343 29.2634 38.0232 30.0673 42.0645C30.8712 46.1058 32.8554 49.8179 35.7689 52.7315C38.6825 55.6451 42.3947 57.6293 46.436 58.4331C50.4772 59.237 54.6661 58.8244 58.4729 57.2476C62.2797 55.6708 65.5334 53.0005 67.8226 49.5745C70.1118 46.1485 71.3337 42.1206 71.3337 38.0001C71.3271 32.4768 69.13 27.1816 65.2244 23.276C61.3188 19.3705 56.0236 17.1734 50.5003 17.1668ZM50.5003 50.5001C48.0281 50.5001 45.6113 49.767 43.5557 48.3935C41.5001 47.02 39.8979 45.0677 38.9518 42.7837C38.0057 40.4996 37.7582 37.9862 38.2405 35.5615C38.7228 33.1367 39.9133 30.9094 41.6615 29.1613C43.4097 27.4131 45.6369 26.2226 48.0617 25.7403C50.4865 25.258 52.9998 25.5055 55.2839 26.4516C57.568 27.3977 59.5202 28.9999 60.8937 31.0555C62.2672 33.1111 63.0003 35.5278 63.0003 38.0001C63.0003 41.3153 61.6834 44.4947 59.3392 46.8389C56.995 49.1832 53.8155 50.5001 50.5003 50.5001Z" fill="#808080"/>
</svg>
