<svg width="37" height="35" viewBox="0 0 37 35" fill="none" xmlns="http://www.w3.org/2000/svg">
<path d="M18.4997 0.5C16.1468 0.5 13.817 0.952651 11.6433 1.83211C9.46951 2.71157 7.49439 4.00061 5.83068 5.62563C2.47065 8.90752 0.583008 13.3587 0.583008 18C0.583008 25.735 5.72509 32.2975 12.838 34.625C13.7338 34.765 14.0205 34.2225 14.0205 33.75V30.7925C9.05759 31.8425 8.00051 28.4475 8.00051 28.4475C7.17634 26.4175 6.01176 25.875 6.01176 25.875C4.38134 24.79 6.13717 24.825 6.13717 24.825C7.92884 24.9475 8.87842 26.6275 8.87842 26.6275C10.4372 29.2875 13.0709 28.5 14.0922 28.08C14.2534 26.9425 14.7193 26.1725 15.2209 25.735C11.2434 25.2975 7.06884 23.7925 7.06884 17.125C7.06884 15.1825 7.74967 13.625 8.91426 12.3825C8.73509 11.945 8.10801 10.125 9.09342 7.7625C9.09342 7.7625 10.5984 7.29 14.0205 9.5475C15.4359 9.1625 16.9768 8.97 18.4997 8.97C20.0226 8.97 21.5634 9.1625 22.9788 9.5475C26.4009 7.29 27.9059 7.7625 27.9059 7.7625C28.8913 10.125 28.2643 11.945 28.0851 12.3825C29.2497 13.625 29.9305 15.1825 29.9305 17.125C29.9305 23.81 25.738 25.28 21.7426 25.7175C22.3876 26.26 22.9788 27.3275 22.9788 28.955V33.75C22.9788 34.2225 23.2655 34.7825 24.1793 34.625C31.2922 32.28 36.4163 25.735 36.4163 18C36.4163 15.7019 35.9529 13.4262 35.0525 11.303C34.1521 9.17984 32.8324 7.25066 31.1687 5.62563C29.505 4.00061 27.5298 2.71157 25.3561 1.83211C23.1823 0.952651 20.8525 0.5 18.4997 0.5Z" fill="white"/>
</svg>
