<svg width="51" height="51" viewBox="0 0 51 51" fill="none" xmlns="http://www.w3.org/2000/svg">
<path d="M25.3994 25.5H45.7119" stroke="#FF0000" stroke-width="2" stroke-linecap="round" stroke-linejoin="round"/>
<path d="M37.915 39.5625V44.25H12.915V6.75H37.915V11.4375H41.04V5.1875C41.04 4.7731 40.8754 4.37567 40.5824 4.08265C40.2894 3.78962 39.8919 3.625 39.4775 3.625H11.3525C10.9381 3.625 10.5407 3.78962 10.2477 4.08265C9.95466 4.37567 9.79004 4.7731 9.79004 5.1875V45.8125C9.79004 46.2269 9.95466 46.6243 10.2477 46.9174C10.5407 47.2104 10.9381 47.375 11.3525 47.375H39.4775C39.8919 47.375 40.2894 47.2104 40.5824 46.9174C40.8754 46.6243 41.04 46.2269 41.04 45.8125V39.5625H37.915Z" fill="#FF0000"/>
<path d="M45.7119 25.5L39.4619 31.75" stroke="#FF0000" stroke-width="2" stroke-linecap="round" stroke-linejoin="round"/>
<path d="M45.7119 25.5L39.4619 19.25" stroke="#FF0000" stroke-width="2" stroke-linecap="round" stroke-linejoin="round"/>
<path d="M39.4619 13.1406V10.0156" stroke="#FF0000" stroke-width="2" stroke-linecap="round" stroke-linejoin="round"/>
<path d="M39.4619 41.125V38" stroke="#FF0000" stroke-width="2" stroke-linecap="round" stroke-linejoin="round"/>
</svg>
