<svg width="41" height="36" viewBox="0 0 41 36" fill="none" xmlns="http://www.w3.org/2000/svg">
<path d="M25.5348 23.7747C25.6982 23.9308 25.6982 24.2604 25.5348 24.4512C24.0433 25.6655 21.2646 25.7696 20.4269 25.7696C19.63 25.7696 16.8513 25.6655 15.4006 24.4512C15.1963 24.2604 15.1963 23.9308 15.4006 23.7747C15.6254 23.6012 15.9727 23.6012 16.1771 23.7747C17.1169 24.5726 19.0579 24.7981 20.4269 24.7981C21.8366 24.7981 23.8185 24.5726 24.7175 23.7747C24.9423 23.6012 25.2896 23.6012 25.5348 23.7747ZM17.8729 19.6634C17.8729 18.6747 16.9126 17.8593 15.748 17.8593C14.5834 17.8593 13.6231 18.6747 13.6231 19.6634C13.6231 20.6522 14.5834 21.4849 15.748 21.4675C16.9126 21.4675 17.8729 20.6522 17.8729 19.6634ZM25.1057 17.8593C23.9411 17.8593 22.9808 18.7267 22.9808 19.6808C22.9808 20.6349 23.9411 21.4849 25.1057 21.4849C26.2703 21.4849 27.2306 20.6522 27.2306 19.6808C27.2306 18.7267 26.2703 17.8593 25.1057 17.8593ZM40.8586 17.8593C40.8586 27.4002 31.6643 35.2064 20.4269 35.2064C9.1894 35.2064 -0.00488281 27.4002 -0.00488281 17.8593C-0.00488281 8.31849 9.1894 0.512329 20.4269 0.512329C31.6643 0.512329 40.8586 8.31849 40.8586 17.8593ZM34.0548 17.8593C34.0548 16.4542 32.6859 15.3267 31.0922 15.3267C30.275 15.3267 29.5394 15.6042 29.0082 16.0379C26.965 14.7889 24.1659 13.991 21.0398 13.8869L22.4087 8.45726L26.8424 9.27257C26.8833 10.2267 27.8231 10.9899 28.9673 10.9899C30.1319 10.9899 31.0922 10.1746 31.0922 9.18584C31.0922 8.19706 30.1319 7.38175 28.9673 7.38175C28.1296 7.38175 27.3941 7.79807 27.0672 8.40522L22.1023 7.50318C21.9592 7.45113 21.8162 7.50318 21.7141 7.57256C21.5915 7.64195 21.5302 7.74603 21.5097 7.86746L19.9978 13.9042C16.8309 13.991 13.9704 14.7889 11.8864 16.0553C11.3552 15.6216 10.6196 15.3614 9.82278 15.3614C8.16781 15.3614 6.83975 16.4889 6.83975 17.8593C6.83975 18.9175 7.57529 19.7849 8.59688 20.1838C8.55602 20.4614 8.53558 20.6696 8.53558 20.9471C8.53558 24.7981 13.8683 28.0073 20.4269 28.0073C27.0263 28.0073 32.3794 24.8502 32.3794 20.9471C32.3794 20.7043 32.359 20.4614 32.2977 20.1838C33.3193 19.7849 34.0548 18.9002 34.0548 17.8593Z" fill="white"/>
</svg>
