<svg width="223" height="196" viewBox="0 0 223 196" fill="none" xmlns="http://www.w3.org/2000/svg">
<path d="M150.092 143.072C146.294 141.819 142.356 140.533 138.9 139.027C134.303 137.029 131.558 133 131.558 128.259V126.031C137.794 121.642 142.303 115.222 143.943 107.836H146.241C152.276 107.836 157.188 103.25 157.188 97.6166V88.7236C157.188 86.529 157.232 84.3837 157.276 82.3119C157.442 73.9758 157.591 66.7779 154.855 61.0701C151.75 54.6012 145.566 51.1046 135.374 50.1218L138.663 45.7655C140.075 43.9067 140.25 41.5075 139.128 39.5093C137.996 37.4703 135.856 36.2502 133.391 36.2502H105.999C95.3592 36.2502 85.36 39.4192 77.8341 45.1758C69.6243 51.4565 65.0981 60.423 65.0981 70.4215V97.6168C65.0981 103.251 70.01 107.836 76.0447 107.836H78.3692C80.027 115.296 84.6055 121.765 90.9298 126.162V128.267C90.9298 133.008 88.1843 137.037 83.5795 139.035C80.1148 140.542 76.1853 141.835 72.3786 143.088C58.8971 147.518 43.6165 152.538 43.6165 169.546V189.444C43.6165 192.777 46.5199 195.479 50.081 195.479H172.398C175.959 195.479 178.853 192.769 178.853 189.444V169.529C178.853 152.521 163.574 147.493 150.092 143.072ZM150.224 97.6157C150.224 99.6711 148.434 101.341 146.233 101.341H144.61L144.619 85.005H146.241C148.443 85.005 150.232 86.6755 150.232 88.7226L150.224 97.6157ZM105.99 42.7347H132.435L129.216 47.0011C127.848 48.7944 127.628 51.0626 128.628 53.0524C129.628 55.0423 131.619 56.3361 133.926 56.508C149.215 57.7526 150.556 64.0907 150.364 79.2633C149.092 78.7801 147.697 78.5099 146.232 78.5099H143.715C141.847 74.1291 137.259 71.0173 131.909 71.0173H129.488C127.523 71.0173 125.927 70.5669 124.313 69.5515L120.182 66.9802C114.603 63.4918 107.674 63.5 102.122 66.972L97.9551 69.5597C96.35 70.5669 94.7623 71.0173 92.7975 71.0173H90.3855C85.035 71.0173 80.4475 74.129 78.5793 78.5099H76.0357C74.6235 78.5099 73.2814 78.7637 72.0448 79.2141V70.4113C72.0448 52.2406 89.1236 42.7347 105.99 42.7347ZM72.0458 97.6157V88.7228C72.0458 86.6757 73.8351 85.0052 76.0366 85.0052H77.6769V101.342H76.0366C73.835 101.342 72.0458 99.671 72.0458 97.6157ZM84.6327 101.612V82.8842C84.6327 79.9198 87.2113 77.5124 90.3867 77.5124H92.7987C96.1406 77.5124 99.1053 76.6772 101.824 74.9575L105.982 72.378C109.21 70.3554 113.069 70.3554 116.315 72.378L116.323 72.3862L120.446 74.9493C123.191 76.6771 126.147 77.5125 129.489 77.5125H131.91C135.085 77.5125 137.664 79.9198 137.664 82.8842V101.612C137.664 102.431 137.62 103.233 137.532 104.027C137.515 104.134 137.497 104.24 137.488 104.347C136.62 111.446 132.445 117.612 126.428 121.469C126.244 121.559 126.077 121.666 125.91 121.788C121.858 124.253 117.034 125.695 111.85 125.695H110.438C105.298 125.695 100.5 124.278 96.4736 121.846C96.3333 121.748 96.1842 121.658 96.0351 121.584C89.1584 117.26 84.6327 109.923 84.6327 101.612ZM110.437 132.197H111.85C116.393 132.197 120.717 131.329 124.656 129.765C124.98 133.752 126.585 137.347 129.234 140.221C126.007 146.74 119.016 150.998 111.227 150.998C103.447 150.998 96.4561 146.74 93.2371 140.213C95.8685 137.364 97.4735 133.785 97.807 129.83C101.693 131.345 105.964 132.197 110.437 132.197ZM171.898 188.977H141.155V174.622C141.155 172.829 139.603 171.379 137.682 171.379C135.761 171.379 134.208 172.829 134.208 174.622V188.977H88.273V174.622C88.273 172.829 86.7205 171.379 84.7995 171.379C82.8785 171.379 81.326 172.829 81.326 174.622V188.977H50.5655V169.529C50.5655 157.115 61.7403 153.446 74.6772 149.197C78.6418 147.895 82.738 146.552 86.5009 144.906C86.9044 144.734 87.2991 144.545 87.6763 144.349C92.3075 152.341 101.281 157.475 111.218 157.475C121.164 157.475 130.146 152.341 134.768 144.349C135.145 144.545 135.54 144.725 135.934 144.897C139.706 146.535 143.802 147.886 147.758 149.188C160.705 153.438 171.879 157.107 171.879 169.521L171.905 188.977H171.898ZM213.299 0H164.084C159.128 0 155.093 3.77501 155.093 8.40154V34.5403C155.093 39.1668 159.128 42.9336 164.084 42.9336H171.057L170.031 49.9103C169.741 51.7364 170.75 53.505 172.592 54.3404C173.215 54.6188 173.872 54.7498 174.521 54.7498C175.776 54.7498 176.995 54.2585 177.881 53.3414L187.959 42.9337H213.29C218.255 42.9337 222.289 39.1668 222.289 34.5403L222.298 8.4016C222.298 3.7669 218.255 0 213.299 0ZM215.343 34.5407C215.343 35.5888 214.422 36.4404 213.291 36.4404H186.889C185.582 36.4404 184.389 36.9399 183.52 37.8407L177.977 43.5646L178.31 41.2801C178.503 40.06 178.117 38.8316 177.249 37.9063C176.381 36.9646 175.161 36.4487 173.828 36.4487H164.083C162.978 36.4487 162.048 35.5808 162.048 34.549L162.04 8.40187C162.04 7.36192 162.969 6.48573 164.075 6.48573H213.29C214.404 6.48573 215.343 7.36192 215.343 8.40187L215.343 34.5407ZM197.318 16.3863C197.318 19.5308 195.345 22.405 192.292 23.7152C192.187 23.7561 192.178 23.7643 192.178 23.8626C192.178 25.6559 190.626 27.1053 188.705 27.1053C186.784 27.1053 185.231 25.6559 185.231 23.8626C185.231 21.2095 186.836 18.8839 189.424 17.803C189.994 17.5574 190.38 17.0005 190.38 16.3864C190.38 15.5266 189.634 14.8305 188.713 14.8305C187.784 14.8305 187.038 15.5266 187.038 16.3864C187.038 18.1797 185.486 19.6292 183.565 19.6292C181.644 19.6292 180.091 18.1798 180.091 16.3864C180.091 11.9481 183.968 8.33704 188.722 8.33704C193.45 8.33704 197.318 11.9483 197.318 16.3863ZM192.169 31.347V31.3552C192.169 33.1485 190.617 34.5979 188.696 34.5979C186.775 34.5979 185.222 33.1485 185.222 31.3552C185.222 29.5618 186.775 28.1042 188.696 28.1042C190.617 28.1042 192.169 29.5536 192.169 31.347ZM47.7598 54.75C48.4001 54.75 49.0491 54.619 49.6631 54.357C49.6894 54.3488 49.7158 54.3324 49.7333 54.3242C51.5051 53.5217 52.5226 51.7611 52.2594 49.9268L51.2244 42.9338H58.1977C63.1534 42.9338 67.1883 39.1669 67.1883 34.5404L67.197 8.40169C67.197 3.76699 63.1622 0.000157436 58.2064 0.000157436H8.99058C4.03486 0.000157436 0 3.76699 0 8.40169V34.5404C0 39.1669 4.03486 42.9338 8.99058 42.9338H34.3305L44.3913 53.3251C45.2772 54.2504 46.5055 54.75 47.7598 54.75ZM38.7954 37.8568C37.9183 36.9397 36.7167 36.4402 35.4185 36.4402H8.98951C7.86678 36.4402 6.95456 35.5886 6.95456 34.5404V8.40168C6.95456 7.36173 7.88432 6.48554 8.98951 6.48554H58.2054C59.3281 6.48554 60.2403 7.34536 60.2403 8.40168V34.5404C60.2403 35.5886 59.3281 36.4402 58.2054 36.4402H48.4693C47.1361 36.4402 45.9169 36.956 45.0486 37.8977C44.1978 38.7985 43.8031 40.0022 43.9609 41.1977C43.9609 41.2141 43.9697 41.2387 43.9697 41.2551L44.3118 43.548L38.7954 37.8568ZM42.2249 16.3865C42.2249 19.5392 40.2426 22.4134 37.1727 23.7154C37.0937 23.7482 37.0849 23.7563 37.0849 23.8628C37.0849 25.6561 35.5324 27.1056 33.6115 27.1056C31.6905 27.1056 30.138 25.6562 30.138 23.8628C30.138 21.2179 31.7343 18.8923 34.3044 17.8032C34.8921 17.5494 35.278 16.9926 35.278 16.3784C35.278 15.5186 34.5324 14.8226 33.6115 14.8226C32.6817 14.8226 31.9361 15.5186 31.9361 16.3784C31.9361 18.1717 30.3836 19.6212 28.4626 19.6212C26.5417 19.6212 24.9892 18.1718 24.9892 16.3784C24.9892 11.9401 28.8662 8.32905 33.6202 8.32905C38.3568 8.33724 42.2249 11.9483 42.2249 16.3865ZM37.0849 31.3472V31.3554C37.0849 33.1487 35.5323 34.5981 33.6114 34.5981C31.6904 34.5981 30.1379 33.1487 30.1379 31.3554C30.1379 29.562 31.6904 28.1044 33.6114 28.1044C35.5235 28.1044 37.0849 29.5538 37.0849 31.3472Z" fill="#5F96BD"/>
</svg>
