<svg width="49" height="50" viewBox="0 0 49 50" fill="none" xmlns="http://www.w3.org/2000/svg">
<path fill-rule="evenodd" clip-rule="evenodd" d="M24.2622 0.5C10.918 0.5 0 11.4746 0 24.8879C0 38.3013 10.918 49.2759 24.2622 49.2759C37.6063 49.2759 48.5243 38.3013 48.5243 24.8879C48.5243 11.4746 37.6063 0.5 24.2622 0.5ZM24.2622 7.81638C28.3867 7.81638 31.5408 10.9868 31.5408 15.1328C31.5408 19.2787 28.3867 22.4492 24.2622 22.4492C20.1376 22.4492 16.9835 19.2787 16.9835 15.1328C16.9835 10.9868 20.1376 7.81638 24.2622 7.81638ZM24.2622 42.4473C18.1966 42.4473 12.8589 39.2768 9.70486 34.6431C9.70486 29.7655 19.4097 27.0829 24.2622 27.0829C29.1146 27.0829 38.8194 29.7655 38.8194 34.6431C35.6654 39.2768 30.3277 42.4473 24.2622 42.4473Z" fill="#ECECEC"/>
</svg>
